<svg version="1.1" xmlns="http://www.w3.org/2000/svg" xmlns:xlink="http://www.w3.org/1999/xlink" width="512" height="512" viewBox="0 0 512 512">
<path d="M128 469.334h256l-128-128-128 128zM448 64h-384c-23.466 0-42.666 19.2-42.666 42.666v256c0 23.466 19.2 42.666 42.666 42.666h85.334v-42.666h-85.334v-256h384v256h-85.334v42.666h85.334c23.466 0 42.666-19.2 42.666-42.666v-256c0-23.466-19.2-42.666-42.666-42.666zM85.334 170.659c0-23.56 19.083-42.659 42.54-42.659h256.253c23.494 0 42.54 18.932 42.54 42.659v128.017c0 23.56-19.083 42.659-42.54 42.659h-256.253c-23.494 0-42.54-18.932-42.54-42.659v-128.017z"></path>
</svg>