<?xml version="1.0" encoding="UTF-8" standalone="no"?>
<svg
   xmlns:dc="http://purl.org/dc/elements/1.1/"
   xmlns:cc="http://creativecommons.org/ns#"
   xmlns:rdf="http://www.w3.org/1999/02/22-rdf-syntax-ns#"
   xmlns:svg="http://www.w3.org/2000/svg"
   xmlns="http://www.w3.org/2000/svg"
   xmlns:sodipodi="http://sodipodi.sourceforge.net/DTD/sodipodi-0.dtd"
   xmlns:inkscape="http://www.inkscape.org/namespaces/inkscape"
   width="24"
   height="24"
   viewBox="0 0 24 24"
   id="svg2"
   version="1.1"
   inkscape:version="0.91 r13725"
   sodipodi:docname="shrink.svg">
  <metadata
     id="metadata12">
    <rdf:RDF>
      <cc:Work
         rdf:about="">
        <dc:format>image/svg+xml</dc:format>
        <dc:type
           rdf:resource="http://purl.org/dc/dcmitype/StillImage" />
      </cc:Work>
    </rdf:RDF>
  </metadata>
  <defs
     id="defs10" />
  <sodipodi:namedview
     pagecolor="#ffffff"
     bordercolor="#666666"
     borderopacity="1"
     objecttolerance="10"
     gridtolerance="10"
     guidetolerance="10"
     inkscape:pageopacity="0"
     inkscape:pageshadow="2"
     inkscape:window-width="640"
     inkscape:window-height="480"
     id="namedview8"
     showgrid="false"
     inkscape:zoom="9.8333333"
     inkscape:cx="12"
     inkscape:cy="14.59322"
     inkscape:window-x="470"
     inkscape:window-y="333"
     inkscape:window-maximized="0"
     inkscape:current-layer="svg2" />
  <path
     d="m 7,9 3,0 0,-2 -5,0 0,5 2,0 z M 21,3 3,3 C 1.9,3 1,3.9 1,5 l 0,14 c 0,1.1 0.9,2 2,2 l 18,0 c 1.1,0 2,-0.9 2,-2 L 23,5 C 23,3.9 22.1,3 21,3 Z m 0,16.01 -18,0 0,-14.02 18,0 z"
     id="path4"
     inkscape:connector-curvature="0"
     sodipodi:nodetypes="cccccccsssssssssccccc" />
  <path
     d="M0 0h24v24H0z"
     fill="none"
     id="path6" />
</svg>
