<?xml version="1.0" encoding="utf-8"?>
<!-- Generated by IcoMoon.io -->
<!DOCTYPE svg PUBLIC "-//W3C//DTD SVG 1.1//EN" "http://www.w3.org/Graphics/SVG/1.1/DTD/svg11.dtd">
<svg version="1.1" xmlns="http://www.w3.org/2000/svg" xmlns:xlink="http://www.w3.org/1999/xlink" width="768" height="768" viewBox="0 0 768 768">
<g id="icomoon-ignore">
</g>
<path fill="#000" d="M605.798 228.087l-28.861 273.171c-1.097 10.375-10.532 18.884-20.963 18.915l-71.851 0.187c-10.432 0.025-18.076-8.443-16.987-18.818l19.69-187.516c1.089-10.375-6.558-18.875-16.987-18.884l-162.881-0.2c-10.432-0.014-19.737 6.427-20.672 14.313s6.839 14.33 17.268 14.33h132.616c10.436 0 18.12 8.497 17.085 18.875l-16.090 160.615c-1.042 10.385-10.427 18.868-20.858 18.857l-244.99-0.247c-10.435-0.008-18.142-8.516-17.128-18.901l4.544-46.522c1.013-10.385 10.38-18.882 20.813-18.882h131.481c10.432 0 19.609-6.446 20.387-14.33s-7.118-14.363-17.554-14.396l-131.477-0.437c-10.435-0.034-18.124-8.554-17.086-18.936l16.097-161.176c1.037-10.385 10.42-18.875 20.855-18.875h207.277c10.436 0 27.512 0 37.942 0h67.543c10.432 0 27.505 0 37.942 0h35.874c10.432 0 18.073 8.488 16.979 18.868zM379.997 13.574c-194.406 0-352.001 157.597-352.001 351.998 0 194.406 157.595 352.003 352.001 352.003 194.402 0 351.998-157.597 351.998-352.003 0-194.402-157.597-351.998-351.998-351.998z"></path>
</svg>
